# xmcd
#
# Track frame offsets: 
#        150
#        15337
#        32234
#        46323
#        61290
#        78037
#        91830
#        108518
#        122428
#        137904
#        154137
#        169811
#        188572
#
# Disc length: 2740 seconds
#
# Revision: 0
# Processed by: cddbd v1.5.2PL0 Copyright (c) Steve Scherf et al.
# Submitted via: ExactAudioCopyFreeDBPlugin 1.0
#
DISCID=980ab20d
DTITLE=Sannie Fox - My Soul Got Stranger
DYEAR=2018
DGENRE=Blues
TTITLE0=Criminal For Your Love
TTITLE1=Shunting Train
TTITLE2=Sorrow
TTITLE3=The Black Winds
TTITLE4=Vibra Snake
TTITLE5=Willow Song
TTITLE6=Big Oceans
TTITLE7=Darlin Plz
TTITLE8=Glorious Wonder
TTITLE9=Record Player
TTITLE10=Me and The Man
TTITLE11=Colder To The End
TTITLE12=Like Fishes
EXTD=
EXTT0=
EXTT1=
EXTT2=
EXTT3=
EXTT4=
EXTT5=
EXTT6=
EXTT7=
EXTT8=
EXTT9=
EXTT10=
EXTT11=
EXTT12=
PLAYORDER=
